<svg xmlns="http://www.w3.org/2000/svg" width="168" height="64" viewBox="0 0 168 64" fill="none"><g clip-path="url(#clip0_2070_2809)"><path d="M54.82 15.0367L29.384 0.352587C28.5697 -0.117529 27.5664 -0.117529 26.752 0.352587L1.31602 15.0367C0.501678 15.5068 0 16.3756 0 17.3159V46.6841C0 47.6244 0.501649 48.4932 1.31602 48.9633L26.752 63.6474C27.5664 64.1175 28.5697 64.1175 29.384 63.6474L54.82 48.9633C55.6344 48.4932 56.1361 47.6243 56.1361 46.6841V17.3159C56.1361 16.3756 55.6344 15.5068 54.82 15.0367ZM28.068 56.6745L5.85527 43.8511L17.0032 37.4155L28.0681 43.8032V31.0278L17.0032 24.6401L28.0681 18.2524L39.1329 24.6401V37.4155L50.2808 43.8511L28.068 56.6745Z" fill="black"></path><path d="M64.1757 8.75277H78.9585V11.89H73.2686V28.1867H69.8654V11.89H64.1757V8.75277Z" fill="black"></path><path d="M78.0011 24.438C78.0011 22.0189 79.756 20.5036 82.8667 20.2644L86.8017 19.9717V19.6794C86.8017 17.8981 85.7382 17.1805 84.0897 17.1805C82.1755 17.1805 81.112 17.978 81.112 19.3604H78.3467C78.3467 16.5157 80.6865 14.6549 84.2493 14.6549C87.7854 14.6549 89.9657 16.5688 89.9657 20.2112V28.1867H87.1207L86.8815 26.246C86.3231 27.6017 84.5418 28.5324 82.4945 28.5324C79.7027 28.5324 78.0011 26.9105 78.0011 24.438ZM86.8282 22.8695V22.1783L84.0897 22.3911C82.069 22.5772 81.2981 23.2417 81.2981 24.3053C81.2981 25.5017 82.0956 26.0864 83.558 26.0864C85.5521 26.0864 86.8282 24.89 86.8282 22.8695Z" fill="black"></path><path d="M92.89 28.1867V8.4073H96.1337V16.9677C96.9845 15.5054 98.7393 14.6282 100.733 14.6282C104.482 14.6282 106.769 17.5526 106.769 21.6999C106.769 25.7409 104.296 28.5324 100.521 28.5324C98.5531 28.5324 96.8781 27.6548 96.1071 26.1395L95.8943 28.1867H92.89ZM99.856 25.5548C102.142 25.5548 103.498 23.9065 103.498 21.5669C103.498 19.2274 102.142 17.5526 99.856 17.5526C97.6227 17.5526 96.1603 19.201 96.1603 21.5669C96.1603 23.9329 97.6227 25.5548 99.856 25.5548Z" fill="black"></path><path d="M109.135 28.1867V8.4073H112.352V28.1867H109.135Z" fill="black"></path><path d="M114.718 21.6201C114.718 17.4995 117.403 14.6549 121.259 14.6549C125.193 14.6549 127.693 17.2867 127.693 21.3808V22.3644L117.802 22.3911C118.042 24.7039 119.265 25.8738 121.418 25.8738C123.199 25.8738 124.37 25.1826 124.742 23.9332H127.746C127.188 26.8042 124.795 28.5324 121.365 28.5324C117.457 28.5324 114.718 25.6878 114.718 21.6201ZM117.882 20.3175H124.476C124.476 18.5098 123.226 17.3134 121.285 17.3134C119.371 17.3134 118.201 18.3501 117.882 20.3175Z" fill="black"></path><path d="M131.123 28.1867V17.7651H128.597V15.0535H131.123V10.9593H134.367V15.0535H136.919V17.7651H134.367V28.1867H131.123Z" fill="black"></path><path d="M144.789 14.6813C148.857 14.6813 151.808 17.4995 151.808 21.5936C151.808 25.6878 148.857 28.5057 144.789 28.5057C140.721 28.5057 137.77 25.6878 137.77 21.5936C137.77 17.4995 140.721 14.6813 144.789 14.6813ZM144.789 25.6079C147.022 25.6079 148.564 23.9863 148.564 21.5936C148.564 19.201 147.022 17.5791 144.789 17.5791C142.555 17.5791 141.013 19.201 141.013 21.5936C141.013 23.9863 142.556 25.6079 144.789 25.6079Z" fill="black"></path><path d="M154.121 15.0535H157.126L157.338 17.0475C158.136 15.5321 159.864 14.6549 161.858 14.6549C165.554 14.6549 168 17.3399 168 21.4607C168 25.5548 165.767 28.5324 161.858 28.5324C159.891 28.5324 158.189 27.7613 157.365 26.4321V34.2746H154.121V15.0535ZM161.087 25.6079C163.374 25.6079 164.73 23.9596 164.73 21.6201C164.73 19.2805 163.374 17.6058 161.087 17.6058C158.854 17.6058 157.392 19.2541 157.392 21.6201C157.392 23.986 158.854 25.6079 161.087 25.6079Z" fill="black"></path><path d="M64.7605 43.2883C64.7605 37.2536 68.5625 33.239 74.2523 33.239C78.852 33.239 82.2818 35.9243 82.9465 40.0982H79.3572C78.6925 37.8382 76.7516 36.5092 74.1725 36.5092C70.5832 36.5092 68.3233 39.1144 68.3233 43.2617C68.3233 47.3825 70.6097 50.0411 74.1725 50.0411C76.8048 50.0411 78.8254 48.6586 79.4635 46.5052H82.9996C82.2552 50.5993 78.6925 53.311 74.0928 53.311C68.4297 53.311 64.7605 49.3762 64.7605 43.2883Z" fill="black"></path><path d="M93.5547 42.8099H92.3583C90.0187 42.8099 88.5563 44.0594 88.5563 46.6114V52.9919H85.3126V39.8854H88.3702L88.5563 41.7996C89.1146 40.4968 90.3644 39.6195 92.1191 39.6195C92.571 39.6195 93.023 39.6726 93.5548 39.8056L93.5547 42.8099Z" fill="black"></path><path d="M94.2725 46.4253C94.2725 42.3048 96.9579 39.4601 100.813 39.4601C104.748 39.4601 107.247 42.092 107.247 46.1861V47.1697L97.3566 47.1964C97.596 49.5092 98.819 50.6791 100.973 50.6791C102.754 50.6791 103.924 49.9879 104.296 48.7384H107.301C106.742 51.6095 104.349 53.3377 100.919 53.3377C97.011 53.3377 94.2725 50.493 94.2725 46.4253ZM97.4365 45.1228H104.03C104.03 43.315 102.781 42.1187 100.84 42.1187C98.9254 42.1187 97.7556 43.1554 97.4365 45.1228Z" fill="black"></path><path d="M108.869 49.2433C108.869 46.8242 110.624 45.3089 113.735 45.0697L117.67 44.777V44.4847C117.67 42.7034 116.606 41.9858 114.958 41.9858C113.043 41.9858 111.98 42.7833 111.98 44.1657H109.215C109.215 41.321 111.555 39.4602 115.117 39.4602C118.653 39.4602 120.834 41.3741 120.834 45.0165V52.9919H117.989L117.749 51.0513C117.191 52.407 115.41 53.3377 113.363 53.3377C110.571 53.3377 108.869 51.7158 108.869 49.2433ZM117.696 47.6748V46.9836L114.958 47.1964C112.937 47.3825 112.166 48.047 112.166 49.1106C112.166 50.3069 112.964 50.8916 114.426 50.8916C116.42 50.8916 117.696 49.6953 117.696 47.6748Z" fill="black"></path><path d="M124.795 52.992V42.5704H122.27V39.8587H124.795V35.7646H128.039V39.8587H130.591V42.5704H128.039V52.992H124.795Z" fill="black"></path><path d="M138.461 39.4866C142.529 39.4866 145.481 42.3048 145.481 46.3989C145.481 50.4931 142.529 53.311 138.461 53.311C134.393 53.311 131.442 50.493 131.442 46.3989C131.442 42.3048 134.394 39.4866 138.461 39.4866ZM138.461 50.4132C140.695 50.4132 142.237 48.7916 142.237 46.3989C142.237 44.0063 140.695 42.3844 138.461 42.3844C136.228 42.3844 134.686 44.0063 134.686 46.3989C134.686 48.7916 136.228 50.4132 138.461 50.4132Z" fill="black"></path><path d="M156.036 42.8099H154.839C152.5 42.8099 151.037 44.0594 151.037 46.6114V52.9919H147.793V39.8854H150.851L151.037 41.7996C151.596 40.4968 152.845 39.6195 154.6 39.6195C155.052 39.6195 155.504 39.6726 156.036 39.8056L156.036 42.8099Z" fill="black"></path></g><defs><clipPath id="clip0_2070_2809"><rect width="168" height="64" fill="white"></rect></clipPath></defs></svg>